HIERARCHY
ROOT Hips
{
  OFFSET 74.0196 97.4445 -31.1285
  CHANNELS 6 Xposition Yposition Zposition Zrotation Xrotation Yrotation
  JOINT RightUpLeg
  {
    OFFSET -8.9458 -8.66707 0.101652
    CHANNELS 3 Zrotation Xrotation Yrotation
    JOINT RightLeg
    {
      OFFSET -2.94875e-013 -44.4227 1.3727
      CHANNELS 3 Zrotation Xrotation Yrotation
      JOINT RightFoot
      {
        OFFSET 0.253549 -42.0924 -1.46059
        CHANNELS 3 Zrotation Xrotation Yrotation
        JOINT RightToes
        {
          OFFSET 0.04 -4.41509 8.4991
          CHANNELS 3 Zrotation Xrotation Yrotation
          End Site
          {
            OFFSET -0.08 -0.137448 9.77979
          }
        }
      }
    }
  }
  JOINT Spine
  {
    OFFSET -5.68434e-014 11.8905 -6.39488e-014
    CHANNELS 3 Zrotation Xrotation Yrotation
    JOINT Spine1
    {
      OFFSET 5.68434e-014 25.6574 0.127663
      CHANNELS 3 Zrotation Xrotation Yrotation
      JOINT HEad
      {
        OFFSET 4.26326e-014 8.73416 0.011341
        CHANNELS 3 Zrotation Xrotation Yrotation
        End Site
        {
          OFFSET -0.29 12.7742 2.51395
        }
      }
      JOINT LeftShoulder1
      {
        OFFSET 8.99 -0.362252 -0.22
        CHANNELS 3 Zrotation Xrotation Yrotation
        JOINT LeftArm
        {
          OFFSET 10.2827 -0.00338 0.322123
          CHANNELS 3 Zrotation Xrotation Yrotation
          JOINT LeftForeArm
          {
            OFFSET 32.7669 0.099144 -1.42434
            CHANNELS 3 Zrotation Xrotation Yrotation
            JOINT LeftHand
            {
              OFFSET 27.5643 0.085362 1.02216
              CHANNELS 3 Zrotation Xrotation Yrotation
              End Site
              {
                OFFSET 16.7443 -0.6 1.50291
              }
            }
          }
        }
      }
      JOINT RightShoulder
      {
        OFFSET -8.99 -0.362252 -0.22
        CHANNELS 3 Zrotation Xrotation Yrotation
        JOINT RightArm
        {
          OFFSET -10.2827 -0.00338 0.322123
          CHANNELS 3 Zrotation Xrotation Yrotation
          JOINT RightForeArm
          {
            OFFSET -32.8971 0.099144 -1.42434
            CHANNELS 3 Zrotation Xrotation Yrotation
            JOINT RightHand
            {
              OFFSET -27.4921 0.085362 1.02216
              CHANNELS 3 Zrotation Xrotation Yrotation
              End Site
              {
                OFFSET -16.6312 -0.6 1.50291
              }
            }
          }
        }
      }
    }
  }
  JOINT LeftUpLeg
  {
    OFFSET 8.9458 -8.66707 0.101652
    CHANNELS 3 Zrotation Xrotation Yrotation
    JOINT LeftLeg
    {
      OFFSET 7.10543e-014 -44.4227 1.3727
      CHANNELS 3 Zrotation Xrotation Yrotation
      JOINT LeftFoot
      {
        OFFSET -0.253549 -42.0924 -1.46059
        CHANNELS 3 Zrotation Xrotation Yrotation
        JOINT LeftToes
        {
          OFFSET -0.04 -4.41509 8.4991
          CHANNELS 3 Zrotation Xrotation Yrotation
          End Site
          {
            OFFSET 0.08 -0.047448 9.77979
          }
        }
      }
    }
  }
}
MOTION
Frames:	12
Frame Time:	0.0166667
76.844 88.9394 0.382196 4.54958 -3.77599 -112.247 -22.7774 -2.99011 6.20407 10.9227 52.0167 -19.6232 -0.233391 -3.66675 -0.137299 -16.3822 -25.4895 -7.97836 -3.03135 4.20829 4.32939 -5.84372 7.91178 9.49853 1.96584 -5.19823 -13.2937 -5.03302e-021 -3.88251e-019 1.21329e-020 -63.1285 -30.1321 -25.1065 0.0463267 31.0855 -116.482 29.5939 1.98325 -25.8575 13.5067 3.20413 16.8761 70.8214 -51.3821 46.8042 -14.3959 47.4721 143.226 -13.2853 15.722 -54.9891 8.24064 -34.5094 -0.718298 20.48 20.9452 -55.8632 -20.285 -0.370543 1.29091 17.4539 -24.7591 -3.70811 
76.9769 88.47 0.529941 3.19882 -3.26308 -115.639 -24.7307 -5.92303 6.41974 10.8518 52.7217 -20.3039 -0.0217981 -2.41499 -0.136268 -16.5941 -25.5424 -8.90063 -2.64995 4.55377 3.63472 -4.88398 8.61044 8.15093 1.52901 -5.41813 -9.82769 -5.03302e-021 -3.88251e-019 1.21329e-020 -63.1434 -33.0482 -24.444 -1.00141 32.337 -115.988 29.2028 1.78109 -27.0065 16.6644 3.8525 17.4545 64.4955 -44.0688 39.1419 -14.9207 39.5176 148.016 -9.83128 14.368 -57.5371 9.67024 -33.7656 -0.154479 20.8968 24.2563 -53.8833 -20.8186 -0.168374 1.36165 19.1898 -27.4481 -4.22287 
77.1752 87.988 0.594611 1.86207 -2.75701 -119.16 -26.3658 -8.71671 6.33319 11.1917 52.7489 -21.2904 -0.0215565 0.283306 -0.118146 -18.3696 -27.4449 -10.5668 -2.29714 4.84946 3.01458 -3.98628 9.21692 6.86915 1.13281 -5.31361 -6.13766 -5.03302e-021 -3.88251e-019 1.21329e-020 -62.9776 -35.9942 -23.0938 -2.73695 33.6274 -115.132 28.221 1.57901 -28.8678 19.1504 4.37862 17.8544 60.6198 -36.3781 34.4715 -15.2195 31.81 150.948 -6.32785 12.7897 -59.8087 11.2632 -32.6375 0.651337 20.9512 27.0045 -52.0261 -21.4327 0.0307731 1.43942 20.8256 -29.9031 -4.51326 
77.4872 87.543 0.518135 0.609642 -2.299 -122.67 -27.562 -11.1973 5.77454 11.4774 52.394 -22.4335 -0.0725856 3.79996 -0.0894946 -21.4041 -30.5541 -12.9084 -2.04432 5.07772 2.5016 -3.21082 9.68917 5.72932 0.694196 -4.85865 -2.42332 -5.03302e-021 -3.88251e-019 1.21329e-020 -62.6387 -38.7529 -21.1831 -5.03369 34.8602 -113.988 26.7061 1.46306 -31.211 20.8771 4.7519 18.109 58.492 -29.1989 31.9749 -15.6306 24.9183 152.619 -3.02925 11.1354 -61.6186 13.0182 -31.1434 1.63497 20.5022 29.0655 -50.3412 -21.9343 0.0543682 1.47868 22.0599 -31.5833 -4.42931 
77.9536 87.2077 0.254842 -0.484745 -1.92794 -125.977 -28.2173 -13.192 4.70404 11.287 51.9526 -23.4712 0.0237373 6.98777 -0.0790589 -24.6319 -33.4916 -15.485 -1.9086 5.21645 2.1115 -2.59701 9.98872 4.79647 0.193119 -4.11785 1.0521 -5.03302e-021 -3.88251e-019 1.21329e-020 -62.2126 -41.0949 -18.9672 -7.65112 35.9385 -112.692 24.796 1.51059 -33.7229 21.8566 4.96107 18.2239 57.5971 -23.2787 31.0264 -16.2416 19.4526 153.466 -0.216355 9.6162 -62.9161 14.8774 -29.3247 2.66734 19.4559 30.284 -48.8067 -22.1399 -0.110525 1.46194 22.6731 -32.1029 -3.87131 
78.6015 87.0617 -0.215911 -1.35067 -1.67792 -128.871 -28.3072 -14.5807 3.28051 10.5292 51.5538 -24.1837 0.358709 8.78437 -0.115667 -26.8081 -35.1526 -17.5754 -1.84083 5.24843 1.83735 -2.15122 10.0889 4.09717 -0.336347 -3.20216 4.04841 -5.03302e-021 -3.88251e-019 1.21329e-020 -61.8372 -42.8368 -16.765 -10.2535 36.7615 -111.445 22.7085 1.74446 -36.0835 22.203 5.02055 18.2036 57.5391 -19.0481 31.124 -16.9904 15.7729 153.836 1.9047 8.41476 -63.7727 16.7413 -27.269 3.57267 17.8136 30.505 -47.3162 -21.945 -0.252195 1.42217 22.6008 -31.374 -2.80758 
79.4418 87.1657 -0.88932 -1.93401 -1.57768 -131.179 -27.9144 -15.3201 1.79863 9.47781 51.0963 -24.541 0.922484 8.73314 -0.196219 -27.2839 -35.2567 -18.6345 -1.76328 5.16911 1.65564 -1.85235 9.98063 3.61487 -0.842869 -2.2317 6.40952 -5.03302e-021 -3.88251e-019 1.21329e-020 -61.6369 -43.8872 -14.8703 -12.4755 37.2475 -110.491 20.7034 2.11389 -38.0467 22.0848 4.96507 18.0684 58.008 -16.535 31.835 -17.7572 13.8422 153.984 3.26005 7.62351 -64.2976 18.4951 -25.1188 4.18233 15.7172 29.6284 -45.7326 -21.3852 0.006337 1.43169 21.9171 -29.6069 -1.31564 
80.4678 87.5447 -1.74159 -2.20936 -1.64297 -132.804 -27.1821 -15.4471 0.530859 8.5392 50.3554 -24.6828 1.63695 7.0949 -0.285531 -26.3048 -34.1798 -18.6573 -1.61467 4.98672 1.53805 -1.66652 9.67494 3.30639 -1.29269 -1.31648 8.08448 -5.03302e-021 -3.88251e-019 1.21329e-020 -61.6565 -44.2661 -13.4765 -14.0221 37.3662 -110.037 19.0255 2.51587 -39.4869 21.6752 4.83767 17.8561 58.7511 -15.4593 32.7851 -18.4259 13.3154 154.059 3.89039 7.24799 -64.5624 20.0356 -23.0481 4.39585 13.4433 27.6662 -43.9585 -20.64 1.03445 1.56004 20.7382 -27.1601 0.37856 
81.6585 88.1859 -2.73571 -2.18699 -1.8661 -133.743 -26.2357 -15.0827 -0.394795 7.96637 49.1569 -24.743 2.37094 4.57674 -0.344494 -24.5871 -32.5166 -18.0249 -1.37626 4.71982 1.46331 -1.56056 9.20462 3.12443 -1.68446 -0.547893 9.11499 -5.03302e-021 -3.88251e-019 1.21329e-020 -61.8389 -44.0975 -12.6488 -14.7508 37.1497 -110.185 17.8535 2.84053 -40.3921 21.1205 4.67841 17.6122 59.5556 -15.4119 33.6834 -18.9105 13.7343 154.118 3.90294 7.23944 -64.5868 21.2894 -21.2178 4.21043 11.3178 24.7858 -41.9484 -19.955 3.00213 1.83818 19.1289 -24.3431 1.93479 
82.9843 89.0491 -3.82457 -1.91234 -2.212 -134.09 -25.1481 -14.4206 -1.01066 7.75203 47.4822 -24.7284 2.98652 1.94689 -0.359211 -22.7531 -30.7528 -17.1409 -1.07521 4.39606 1.4228 -1.50851 8.62331 3.03269 -2.04163 0.00979799 9.60526 -5.03302e-021 -3.88251e-019 1.21329e-020 -62.0621 -43.5818 -12.3496 -14.6946 36.6811 -110.895 17.2744 3.01159 -40.8191 20.5292 4.51817 17.3799 60.2552 -15.9942 34.3475 -19.1659 14.6772 154.16 3.43821 7.51792 -64.3703 22.2189 -19.7431 3.70571 9.59033 21.326 -39.6651 -19.5082 5.77685 2.25137 17.0973 -21.3139 3.02693 
84.4122 90.0834 -4.95502 -1.45751 -2.62378 -134.003 -23.9588 -13.6776 -1.44993 7.72714 45.4643 -24.5534 3.41051 -0.220088 -0.344742 -21.1218 -29.1557 -16.2468 -0.7688 4.05139 1.41664 -1.49118 8.00014 3.00936 -2.39128 0.328098 9.6865 -5.03302e-021 -3.88251e-019 1.21329e-020 -62.2058 -42.9543 -12.4883 -14.0252 36.0741 -112.019 17.2779 3.00493 -40.8493 19.9716 4.37693 17.1928 60.7498 -16.8778 34.704 -19.1958 15.8099 154.171 2.66222 7.98001 -63.9332 22.8217 -18.6945 3.00293 8.35147 17.7835 -37.0492 -19.2882 8.94197 2.73831 14.6685 -18.1096 3.50539 
85.9073 91.2402 -6.07605 -0.906419 -3.03634 -133.66 -22.7066 -13.0265 -1.86408 7.7217 43.3055 -24.1352 3.66771 -1.59427 -0.32661 -19.8103 -27.8485 -15.4421 -0.522463 3.72629 1.44438 -1.49289 7.408 3.0419 -2.74297 0.420822 9.48457 -5.03302e-021 -3.88251e-019 1.21329e-020 -62.2043 -42.4313 -12.964 -12.9866 35.4542 -113.35 17.7675 2.84598 -40.5674 19.4874 4.26496 17.0704 61.0117 -17.8076 34.7631 -19.0522 16.8725 154.154 1.76583 8.50542 -63.3455 23.1235 -18.1311 2.22759 7.53023 14.7743 -34.048 -19.0651 11.8932 3.17827 11.9595 -14.7512 3.48888 
